# xmcd
#
# Track frame offsets:
# 182
# 15857
# 33045
# 49307
# 64457
# 79670
# 98570
# 113732
# 129857
# 146407
# 167207
# 188782
#
# Disc length: 2735 seconds
#
#
# Revision: 4
# Processed by: cddbd v1.5.2PL0 Copyright (c) Steve Scherf et al.
# Submitted via: FreeRIP 2.96 
#
DISCID=900aad0c
DTITLE=John Lee Hooker  Sad and Lonesome - Sad and Lonesome
DYEAR=1999
DGENRE=Blues
TTITLE0=I Bought You A Brand New Home
TTITLE1=I Believe I'll Lose My Mind
TTITLE2=Teasin' Me
TTITLE3=My Cryin' Days Are Over
TTITLE4=Sittin' Here Thinkin'
TTITLE5=Mean Mistreatin'
TTITLE6=How Long?
TTITLE7=How Many More Years?
TTITLE8=C.C. Rider
TTITLE9=Sad And Lonesome
TTITLE10=Can't You See What You're Doin' To Me?
TTITLE11=When My Wife Quit Me
EXTD=
EXTT0=
EXTT1=
EXTT2=
EXTT3=
EXTT4=
EXTT5=
EXTT6=
EXTT7=
EXTT8=
EXTT9=
EXTT10=
EXTT11=
PLAYORDER=
